<svg width="296" height="222" viewBox="0 0 296 222" fill="none" xmlns="http://www.w3.org/2000/svg">
<path d="M6.93276 9.69141C6.93276 10.2109 6.81167 10.6523 6.56948 11.0156C6.3312 11.375 6.00698 11.6484 5.59683 11.8359C5.19058 12.0234 4.73159 12.1172 4.21987 12.1172C3.70815 12.1172 3.24722 12.0234 2.83706 11.8359C2.4269 11.6484 2.10269 11.375 1.8644 11.0156C1.62612 10.6523 1.50698 10.2109 1.50698 9.69141C1.50698 9.35156 1.57144 9.04102 1.70034 8.75977C1.83315 8.47461 2.0187 8.22656 2.25698 8.01562C2.49917 7.80469 2.78433 7.64258 3.11245 7.5293C3.44448 7.41211 3.80972 7.35352 4.20815 7.35352C4.73159 7.35352 5.19839 7.45508 5.60855 7.6582C6.0187 7.85742 6.34097 8.13281 6.57534 8.48438C6.81362 8.83594 6.93276 9.23828 6.93276 9.69141ZM5.84292 9.66797C5.84292 9.35156 5.77456 9.07227 5.63784 8.83008C5.50112 8.58398 5.30972 8.39258 5.06362 8.25586C4.81753 8.11914 4.53237 8.05078 4.20815 8.05078C3.87612 8.05078 3.58901 8.11914 3.34683 8.25586C3.10855 8.39258 2.923 8.58398 2.79019 8.83008C2.65737 9.07227 2.59097 9.35156 2.59097 9.66797C2.59097 9.99609 2.65542 10.2773 2.78433 10.5117C2.91714 10.7422 3.10464 10.9199 3.34683 11.0449C3.59292 11.166 3.88394 11.2266 4.21987 11.2266C4.55581 11.2266 4.84487 11.166 5.08706 11.0449C5.32925 10.9199 5.5148 10.7422 5.6437 10.5117C5.77651 10.2773 5.84292 9.99609 5.84292 9.66797ZM6.73355 5.68945C6.73355 6.10352 6.62417 6.47656 6.40542 6.80859C6.18667 7.14062 5.88784 7.40234 5.50894 7.59375C5.13003 7.78516 4.70034 7.88086 4.21987 7.88086C3.73159 7.88086 3.29605 7.78516 2.91323 7.59375C2.53433 7.40234 2.23745 7.14062 2.02261 6.80859C1.80776 6.47656 1.70034 6.10352 1.70034 5.68945C1.70034 5.19336 1.80776 4.77148 2.02261 4.42383C2.24136 4.07617 2.54019 3.81055 2.91909 3.62695C3.298 3.44336 3.72964 3.35156 4.21401 3.35156C4.7023 3.35156 5.13589 3.44336 5.5148 3.62695C5.8937 3.81055 6.19058 4.07617 6.40542 4.42383C6.62417 4.77148 6.73355 5.19336 6.73355 5.68945ZM5.64956 5.70703C5.64956 5.42188 5.58901 5.16992 5.46792 4.95117C5.34683 4.73242 5.17886 4.56055 4.96401 4.43555C4.74917 4.30664 4.49917 4.24219 4.21401 4.24219C3.92886 4.24219 3.67886 4.30273 3.46401 4.42383C3.25308 4.54102 3.08706 4.70898 2.96597 4.92773C2.84878 5.14648 2.79019 5.40625 2.79019 5.70703C2.79019 6 2.84878 6.25586 2.96597 6.47461C3.08706 6.69336 3.25503 6.86328 3.46987 6.98438C3.68472 7.10547 3.93472 7.16602 4.21987 7.16602C4.50503 7.16602 4.75308 7.10547 4.96401 6.98438C5.17886 6.86328 5.34683 6.69336 5.46792 6.47461C5.58901 6.25586 5.64956 6 5.64956 5.70703ZM13.8093 7.05469V8.35547C13.8093 9.05469 13.7468 9.64453 13.6218 10.125C13.4968 10.6055 13.3171 10.9922 13.0828 11.2852C12.8484 11.5781 12.5652 11.791 12.2332 11.9238C11.905 12.0527 11.5339 12.1172 11.1199 12.1172C10.7917 12.1172 10.489 12.0762 10.2117 11.9941C9.93433 11.9121 9.68433 11.7812 9.46167 11.6016C9.24292 11.418 9.05542 11.1797 8.89917 10.8867C8.74292 10.5938 8.62378 10.2383 8.54175 9.82031C8.45972 9.40234 8.4187 8.91406 8.4187 8.35547V7.05469C8.4187 6.35547 8.4812 5.76953 8.6062 5.29688C8.73511 4.82422 8.91675 4.44531 9.15112 4.16016C9.3855 3.87109 9.66675 3.66406 9.99487 3.53906C10.3269 3.41406 10.698 3.35156 11.1082 3.35156C11.4402 3.35156 11.7449 3.39258 12.0222 3.47461C12.3035 3.55273 12.5535 3.67969 12.7722 3.85547C12.991 4.02734 13.1765 4.25781 13.3289 4.54688C13.4851 4.83203 13.6042 5.18164 13.6863 5.5957C13.7683 6.00977 13.8093 6.49609 13.8093 7.05469ZM12.7195 8.53125V6.87305C12.7195 6.49023 12.696 6.1543 12.6492 5.86523C12.6062 5.57227 12.5417 5.32227 12.4558 5.11523C12.3699 4.9082 12.2605 4.74023 12.1277 4.61133C11.9988 4.48242 11.8484 4.38867 11.6765 4.33008C11.5085 4.26758 11.3191 4.23633 11.1082 4.23633C10.8503 4.23633 10.6218 4.28516 10.4226 4.38281C10.2234 4.47656 10.0554 4.62695 9.9187 4.83398C9.78589 5.04102 9.68433 5.3125 9.61401 5.64844C9.5437 5.98438 9.50855 6.39258 9.50855 6.87305V8.53125C9.50855 8.91406 9.53003 9.25195 9.573 9.54492C9.61987 9.83789 9.68823 10.0918 9.77808 10.3066C9.86792 10.5176 9.9773 10.6914 10.1062 10.8281C10.2351 10.9648 10.3835 11.0664 10.5515 11.1328C10.7234 11.1953 10.9128 11.2266 11.1199 11.2266C11.3855 11.2266 11.6179 11.1758 11.8171 11.0742C12.0164 10.9727 12.1824 10.8145 12.3152 10.5996C12.4519 10.3809 12.5535 10.1016 12.6199 9.76172C12.6863 9.41797 12.7195 9.00781 12.7195 8.53125Z" fill="white" fill-opacity="0.87"/>
<path d="M5.71401 47.957H5.80776V48.877H5.71401C5.1398 48.877 4.65933 48.9707 4.27261 49.1582C3.88589 49.3418 3.57925 49.5898 3.35269 49.9023C3.12612 50.2109 2.96206 50.5586 2.8605 50.9453C2.76284 51.332 2.71401 51.7246 2.71401 52.123V53.377C2.71401 53.7559 2.75894 54.0918 2.84878 54.3848C2.93862 54.6738 3.06167 54.918 3.21792 55.1172C3.37417 55.3164 3.54995 55.4668 3.74526 55.5684C3.94448 55.6699 4.15151 55.7207 4.36636 55.7207C4.61636 55.7207 4.83901 55.6738 5.03433 55.5801C5.22964 55.4824 5.3937 55.3477 5.52651 55.1758C5.66323 55 5.76675 54.793 5.83706 54.5547C5.90737 54.3164 5.94253 54.0547 5.94253 53.7695C5.94253 53.5156 5.91128 53.2715 5.84878 53.0371C5.78628 52.7988 5.69058 52.5879 5.56167 52.4043C5.43276 52.2168 5.27065 52.0703 5.07534 51.9648C4.88394 51.8555 4.65542 51.8008 4.3898 51.8008C4.08901 51.8008 3.80776 51.875 3.54605 52.0234C3.28823 52.168 3.07534 52.3594 2.90737 52.5977C2.74331 52.832 2.64956 53.0879 2.62612 53.3652L2.0519 53.3594C2.10659 52.9219 2.20815 52.5488 2.35659 52.2402C2.50894 51.9277 2.69644 51.6738 2.91909 51.4785C3.14565 51.2793 3.39761 51.1348 3.67495 51.0449C3.9562 50.9512 4.25308 50.9043 4.56558 50.9043C4.99136 50.9043 5.35855 50.9844 5.66714 51.1445C5.97573 51.3047 6.22964 51.5195 6.42886 51.7891C6.62808 52.0547 6.77456 52.3555 6.86831 52.6914C6.96597 53.0234 7.0148 53.3652 7.0148 53.7168C7.0148 54.1191 6.95815 54.4961 6.84487 54.8477C6.73159 55.1992 6.56167 55.5078 6.33511 55.7734C6.11245 56.0391 5.83706 56.2461 5.50894 56.3945C5.18081 56.543 4.79995 56.6172 4.36636 56.6172C3.90542 56.6172 3.50308 56.5234 3.15933 56.3359C2.81558 56.1445 2.53042 55.8906 2.30386 55.5742C2.0773 55.2578 1.90737 54.9062 1.79409 54.5195C1.68081 54.1328 1.62417 53.7402 1.62417 53.3418V52.832C1.62417 52.2305 1.68472 51.6406 1.80581 51.0625C1.9269 50.4844 2.13589 49.9609 2.43276 49.4922C2.73355 49.0234 3.14956 48.6504 3.68081 48.373C4.21206 48.0957 4.8898 47.957 5.71401 47.957ZM13.8093 51.5547V52.8555C13.8093 53.5547 13.7468 54.1445 13.6218 54.625C13.4968 55.1055 13.3171 55.4922 13.0828 55.7852C12.8484 56.0781 12.5652 56.291 12.2332 56.4238C11.905 56.5527 11.5339 56.6172 11.1199 56.6172C10.7917 56.6172 10.489 56.5762 10.2117 56.4941C9.93433 56.4121 9.68433 56.2812 9.46167 56.1016C9.24292 55.918 9.05542 55.6797 8.89917 55.3867C8.74292 55.0938 8.62378 54.7383 8.54175 54.3203C8.45972 53.9023 8.4187 53.4141 8.4187 52.8555V51.5547C8.4187 50.8555 8.4812 50.2695 8.6062 49.7969C8.73511 49.3242 8.91675 48.9453 9.15112 48.6602C9.3855 48.3711 9.66675 48.1641 9.99487 48.0391C10.3269 47.9141 10.698 47.8516 11.1082 47.8516C11.4402 47.8516 11.7449 47.8926 12.0222 47.9746C12.3035 48.0527 12.5535 48.1797 12.7722 48.3555C12.991 48.5273 13.1765 48.7578 13.3289 49.0469C13.4851 49.332 13.6042 49.6816 13.6863 50.0957C13.7683 50.5098 13.8093 50.9961 13.8093 51.5547ZM12.7195 53.0312V51.373C12.7195 50.9902 12.696 50.6543 12.6492 50.3652C12.6062 50.0723 12.5417 49.8223 12.4558 49.6152C12.3699 49.4082 12.2605 49.2402 12.1277 49.1113C11.9988 48.9824 11.8484 48.8887 11.6765 48.8301C11.5085 48.7676 11.3191 48.7363 11.1082 48.7363C10.8503 48.7363 10.6218 48.7852 10.4226 48.8828C10.2234 48.9766 10.0554 49.127 9.9187 49.334C9.78589 49.541 9.68433 49.8125 9.61401 50.1484C9.5437 50.4844 9.50855 50.8926 9.50855 51.373V53.0312C9.50855 53.4141 9.53003 53.752 9.573 54.0449C9.61987 54.3379 9.68823 54.5918 9.77808 54.8066C9.86792 55.0176 9.9773 55.1914 10.1062 55.3281C10.2351 55.4648 10.3835 55.5664 10.5515 55.6328C10.7234 55.6953 10.9128 55.7266 11.1199 55.7266C11.3855 55.7266 11.6179 55.6758 11.8171 55.5742C12.0164 55.4727 12.1824 55.3145 12.3152 55.0996C12.4519 54.8809 12.5535 54.6016 12.6199 54.2617C12.6863 53.918 12.7195 53.5078 12.7195 53.0312Z" fill="white" fill-opacity="0.87"/>
<path d="M7.31948 98.1289V99.0195H1.15542V98.3809L4.97573 92.4688H5.8605L4.91128 94.1797L2.38589 98.1289H7.31948ZM6.13003 92.4688V101H5.04605V92.4688H6.13003ZM13.8093 96.0547V97.3555C13.8093 98.0547 13.7468 98.6445 13.6218 99.125C13.4968 99.6055 13.3171 99.9922 13.0828 100.285C12.8484 100.578 12.5652 100.791 12.2332 100.924C11.905 101.053 11.5339 101.117 11.1199 101.117C10.7917 101.117 10.489 101.076 10.2117 100.994C9.93433 100.912 9.68433 100.781 9.46167 100.602C9.24292 100.418 9.05542 100.18 8.89917 99.8867C8.74292 99.5938 8.62378 99.2383 8.54175 98.8203C8.45972 98.4023 8.4187 97.9141 8.4187 97.3555V96.0547C8.4187 95.3555 8.4812 94.7695 8.6062 94.2969C8.73511 93.8242 8.91675 93.4453 9.15112 93.1602C9.3855 92.8711 9.66675 92.6641 9.99487 92.5391C10.3269 92.4141 10.698 92.3516 11.1082 92.3516C11.4402 92.3516 11.7449 92.3926 12.0222 92.4746C12.3035 92.5527 12.5535 92.6797 12.7722 92.8555C12.991 93.0273 13.1765 93.2578 13.3289 93.5469C13.4851 93.832 13.6042 94.1816 13.6863 94.5957C13.7683 95.0098 13.8093 95.4961 13.8093 96.0547ZM12.7195 97.5312V95.873C12.7195 95.4902 12.696 95.1543 12.6492 94.8652C12.6062 94.5723 12.5417 94.3223 12.4558 94.1152C12.3699 93.9082 12.2605 93.7402 12.1277 93.6113C11.9988 93.4824 11.8484 93.3887 11.6765 93.3301C11.5085 93.2676 11.3191 93.2363 11.1082 93.2363C10.8503 93.2363 10.6218 93.2852 10.4226 93.3828C10.2234 93.4766 10.0554 93.627 9.9187 93.834C9.78589 94.041 9.68433 94.3125 9.61401 94.6484C9.5437 94.9844 9.50855 95.3926 9.50855 95.873V97.5312C9.50855 97.9141 9.53003 98.252 9.573 98.5449C9.61987 98.8379 9.68823 99.0918 9.77808 99.3066C9.86792 99.5176 9.9773 99.6914 10.1062 99.8281C10.2351 99.9648 10.3835 100.066 10.5515 100.133C10.7234 100.195 10.9128 100.227 11.1199 100.227C11.3855 100.227 11.6179 100.176 11.8171 100.074C12.0164 99.9727 12.1824 99.8145 12.3152 99.5996C12.4519 99.3809 12.5535 99.1016 12.6199 98.7617C12.6863 98.418 12.7195 98.0078 12.7195 97.5312Z" fill="white" fill-opacity="0.87"/>
<path d="M7.1437 144.609V145.5H1.55972V144.721L4.35464 141.609C4.69839 141.227 4.96401 140.902 5.15151 140.637C5.34292 140.367 5.47573 140.127 5.54995 139.916C5.62808 139.701 5.66714 139.482 5.66714 139.26C5.66714 138.979 5.60855 138.725 5.49136 138.498C5.37808 138.268 5.21011 138.084 4.98745 137.947C4.7648 137.811 4.49526 137.742 4.17886 137.742C3.79995 137.742 3.48355 137.816 3.22964 137.965C2.97964 138.109 2.79214 138.312 2.66714 138.574C2.54214 138.836 2.47964 139.137 2.47964 139.477H1.39565C1.39565 138.996 1.50112 138.557 1.71206 138.158C1.923 137.76 2.2355 137.443 2.64956 137.209C3.06362 136.971 3.57339 136.852 4.17886 136.852C4.71792 136.852 5.17886 136.947 5.56167 137.139C5.94448 137.326 6.23745 137.592 6.44058 137.936C6.64761 138.275 6.75112 138.674 6.75112 139.131C6.75112 139.381 6.70815 139.635 6.62222 139.893C6.54019 140.146 6.42495 140.4 6.27651 140.654C6.13198 140.908 5.96206 141.158 5.76675 141.404C5.57534 141.65 5.37026 141.893 5.15151 142.131L2.86636 144.609H7.1437ZM13.8093 140.555V141.855C13.8093 142.555 13.7468 143.145 13.6218 143.625C13.4968 144.105 13.3171 144.492 13.0828 144.785C12.8484 145.078 12.5652 145.291 12.2332 145.424C11.905 145.553 11.5339 145.617 11.1199 145.617C10.7917 145.617 10.489 145.576 10.2117 145.494C9.93433 145.412 9.68433 145.281 9.46167 145.102C9.24292 144.918 9.05542 144.68 8.89917 144.387C8.74292 144.094 8.62378 143.738 8.54175 143.32C8.45972 142.902 8.4187 142.414 8.4187 141.855V140.555C8.4187 139.855 8.4812 139.27 8.6062 138.797C8.73511 138.324 8.91675 137.945 9.15112 137.66C9.3855 137.371 9.66675 137.164 9.99487 137.039C10.3269 136.914 10.698 136.852 11.1082 136.852C11.4402 136.852 11.7449 136.893 12.0222 136.975C12.3035 137.053 12.5535 137.18 12.7722 137.355C12.991 137.527 13.1765 137.758 13.3289 138.047C13.4851 138.332 13.6042 138.682 13.6863 139.096C13.7683 139.51 13.8093 139.996 13.8093 140.555ZM12.7195 142.031V140.373C12.7195 139.99 12.696 139.654 12.6492 139.365C12.6062 139.072 12.5417 138.822 12.4558 138.615C12.3699 138.408 12.2605 138.24 12.1277 138.111C11.9988 137.982 11.8484 137.889 11.6765 137.83C11.5085 137.768 11.3191 137.736 11.1082 137.736C10.8503 137.736 10.6218 137.785 10.4226 137.883C10.2234 137.977 10.0554 138.127 9.9187 138.334C9.78589 138.541 9.68433 138.812 9.61401 139.148C9.5437 139.484 9.50855 139.893 9.50855 140.373V142.031C9.50855 142.414 9.53003 142.752 9.573 143.045C9.61987 143.338 9.68823 143.592 9.77808 143.807C9.86792 144.018 9.9773 144.191 10.1062 144.328C10.2351 144.465 10.3835 144.566 10.5515 144.633C10.7234 144.695 10.9128 144.727 11.1199 144.727C11.3855 144.727 11.6179 144.676 11.8171 144.574C12.0164 144.473 12.1824 144.314 12.3152 144.1C12.4519 143.881 12.5535 143.602 12.6199 143.262C12.6863 142.918 12.7195 142.508 12.7195 142.031Z" fill="white" fill-opacity="0.87"/>
<path d="M6.80933 185.055V186.355C6.80933 187.055 6.74683 187.645 6.62183 188.125C6.49683 188.605 6.31714 188.992 6.08276 189.285C5.84839 189.578 5.56519 189.791 5.23315 189.924C4.90503 190.053 4.53394 190.117 4.11987 190.117C3.79175 190.117 3.48901 190.076 3.21167 189.994C2.93433 189.912 2.68433 189.781 2.46167 189.602C2.24292 189.418 2.05542 189.18 1.89917 188.887C1.74292 188.594 1.62378 188.238 1.54175 187.82C1.45972 187.402 1.4187 186.914 1.4187 186.355V185.055C1.4187 184.355 1.4812 183.77 1.6062 183.297C1.73511 182.824 1.91675 182.445 2.15112 182.16C2.3855 181.871 2.66675 181.664 2.99487 181.539C3.3269 181.414 3.698 181.352 4.10815 181.352C4.44019 181.352 4.74487 181.393 5.02222 181.475C5.30347 181.553 5.55347 181.68 5.77222 181.855C5.99097 182.027 6.17651 182.258 6.32886 182.547C6.48511 182.832 6.60425 183.182 6.68628 183.596C6.76831 184.01 6.80933 184.496 6.80933 185.055ZM5.71948 186.531V184.873C5.71948 184.49 5.69604 184.154 5.64917 183.865C5.6062 183.572 5.54175 183.322 5.45581 183.115C5.36987 182.908 5.2605 182.74 5.12769 182.611C4.99878 182.482 4.84839 182.389 4.67651 182.33C4.50854 182.268 4.31909 182.236 4.10815 182.236C3.85034 182.236 3.62183 182.285 3.42261 182.383C3.22339 182.477 3.05542 182.627 2.9187 182.834C2.78589 183.041 2.68433 183.312 2.61401 183.648C2.5437 183.984 2.50854 184.393 2.50854 184.873V186.531C2.50854 186.914 2.53003 187.252 2.573 187.545C2.61987 187.838 2.68823 188.092 2.77808 188.307C2.86792 188.518 2.97729 188.691 3.1062 188.828C3.23511 188.965 3.38354 189.066 3.55151 189.133C3.72339 189.195 3.91284 189.227 4.11987 189.227C4.3855 189.227 4.61792 189.176 4.81714 189.074C5.01636 188.973 5.18237 188.814 5.31519 188.6C5.4519 188.381 5.55347 188.102 5.61987 187.762C5.68628 187.418 5.71948 187.008 5.71948 186.531Z" fill="white" fill-opacity="0.87"/>
<rect x="22.4949" y="7" width="273" height="1" fill="white" fill-opacity="0.06"/>
<rect x="22.4949" y="51.5" width="273" height="1" fill="white" fill-opacity="0.06"/>
<rect x="22.4949" y="96" width="273" height="1" fill="white" fill-opacity="0.06"/>
<rect x="22.4949" y="140.5" width="273" height="1" fill="white" fill-opacity="0.06"/>
<rect x="22.4949" y="185" width="273" height="2" fill="white" fill-opacity="0.06"/>
<path d="M55.5 96C55.5 94.8954 56.3954 94 57.5 94H81.5C82.6046 94 83.5 94.8954 83.5 96V185H55.5V96Z" fill="#2858FF"/>
<path d="M122.5 65C122.5 63.8954 123.395 63 124.5 63H148.5C149.605 63 150.5 63.8954 150.5 65V185H122.5V65Z" fill="#2858FF"/>
<path d="M189.5 37C189.5 35.8954 190.395 35 191.5 35H215.5C216.605 35 217.5 35.8954 217.5 37V185H189.5V37Z" fill="#2858FF"/>
<path d="M256.5 17C256.5 15.8954 257.395 15 258.5 15H282.5C283.605 15 284.5 15.8954 284.5 17V185H256.5V17Z" fill="#2858FF"/>
<path d="M54.3262 198.891H55.2393L57.5684 204.687L59.8926 198.891H60.8105L57.9199 206H57.207L54.3262 198.891ZM54.0283 198.891H54.834L54.9658 203.227V206H54.0283V198.891ZM60.2979 198.891H61.1035V206H60.166V203.227L60.2979 198.891ZM64.9645 206.098C64.5966 206.098 64.263 206.036 63.9635 205.912C63.6673 205.785 63.4117 205.608 63.1969 205.38C62.9853 205.152 62.8225 204.882 62.7086 204.569C62.5947 204.257 62.5377 203.915 62.5377 203.544V203.339C62.5377 202.909 62.6012 202.527 62.7281 202.191C62.8551 201.853 63.0276 201.566 63.2457 201.332C63.4638 201.098 63.7112 200.92 63.9879 200.8C64.2646 200.679 64.551 200.619 64.8473 200.619C65.2249 200.619 65.5504 200.684 65.8238 200.814C66.1005 200.945 66.3268 201.127 66.5025 201.361C66.6783 201.592 66.8085 201.866 66.8932 202.182C66.9778 202.494 67.0201 202.836 67.0201 203.207V203.612H63.0748V202.875H66.1168V202.807C66.1038 202.572 66.0549 202.344 65.9703 202.123C65.8889 201.902 65.7587 201.719 65.5797 201.576C65.4007 201.433 65.1565 201.361 64.8473 201.361C64.6422 201.361 64.4534 201.405 64.2809 201.493C64.1083 201.578 63.9602 201.705 63.8365 201.874C63.7128 202.043 63.6168 202.25 63.5484 202.494C63.4801 202.738 63.4459 203.02 63.4459 203.339V203.544C63.4459 203.795 63.4801 204.031 63.5484 204.252C63.6201 204.47 63.7226 204.662 63.8561 204.828C63.9928 204.994 64.1572 205.124 64.3492 205.219C64.5445 205.313 64.7659 205.36 65.0133 205.36C65.3323 205.36 65.6025 205.295 65.8238 205.165C66.0452 205.035 66.2389 204.861 66.4049 204.643L66.9518 205.077C66.8378 205.25 66.693 205.414 66.5172 205.57C66.3414 205.727 66.1249 205.854 65.8678 205.951C65.6139 206.049 65.3128 206.098 64.9645 206.098ZM64.3443 199.936L65.2916 198.5H66.3805L65.0719 199.936H64.3443ZM71.5549 204.975V198.5H72.4631V206H71.633L71.5549 204.975ZM68.0002 203.417V203.314C68.0002 202.911 68.049 202.545 68.1467 202.216C68.2476 201.884 68.3892 201.599 68.5715 201.361C68.757 201.124 68.9768 200.941 69.2307 200.814C69.4878 200.684 69.7743 200.619 70.09 200.619C70.4221 200.619 70.7118 200.678 70.9592 200.795C71.2098 200.909 71.4214 201.076 71.5939 201.298C71.7697 201.516 71.9081 201.78 72.009 202.089C72.1099 202.398 72.1799 202.748 72.2189 203.139V203.588C72.1831 203.975 72.1132 204.324 72.009 204.633C71.9081 204.942 71.7697 205.206 71.5939 205.424C71.4214 205.642 71.2098 205.81 70.9592 205.927C70.7085 206.041 70.4156 206.098 70.0803 206.098C69.771 206.098 69.4878 206.031 69.2307 205.897C68.9768 205.764 68.757 205.577 68.5715 205.336C68.3892 205.095 68.2476 204.812 68.1467 204.486C68.049 204.158 68.0002 203.801 68.0002 203.417ZM68.9084 203.314V203.417C68.9084 203.681 68.9344 203.928 68.9865 204.159C69.0419 204.39 69.1265 204.594 69.2404 204.77C69.3544 204.945 69.4992 205.084 69.675 205.185C69.8508 205.282 70.0607 205.331 70.3049 205.331C70.6044 205.331 70.8501 205.268 71.0422 205.141C71.2375 205.014 71.3938 204.846 71.5109 204.638C71.6281 204.429 71.7193 204.203 71.7844 203.959V202.782C71.7453 202.603 71.6883 202.431 71.6135 202.265C71.5419 202.095 71.4475 201.946 71.3303 201.815C71.2163 201.682 71.0747 201.576 70.9055 201.498C70.7395 201.42 70.5425 201.381 70.3146 201.381C70.0673 201.381 69.854 201.433 69.675 201.537C69.4992 201.638 69.3544 201.778 69.2404 201.957C69.1265 202.133 69.0419 202.338 68.9865 202.572C68.9344 202.803 68.9084 203.051 68.9084 203.314ZM75.0008 200.717V206H74.0926V200.717H75.0008ZM74.0242 199.315C74.0242 199.169 74.0682 199.045 74.1561 198.944C74.2472 198.843 74.3807 198.793 74.5564 198.793C74.729 198.793 74.8608 198.843 74.952 198.944C75.0464 199.045 75.0936 199.169 75.0936 199.315C75.0936 199.455 75.0464 199.576 74.952 199.677C74.8608 199.774 74.729 199.823 74.5564 199.823C74.3807 199.823 74.2472 199.774 74.1561 199.677C74.0682 199.576 74.0242 199.455 74.0242 199.315ZM78.7152 205.355C78.9301 205.355 79.1286 205.312 79.3109 205.224C79.4932 205.136 79.643 205.015 79.7602 204.862C79.8773 204.706 79.9441 204.529 79.9604 204.33H80.8197C80.8035 204.643 80.6977 204.934 80.5023 205.204C80.3103 205.471 80.058 205.688 79.7455 205.854C79.433 206.016 79.0896 206.098 78.7152 206.098C78.3181 206.098 77.9714 206.028 77.6752 205.888C77.3822 205.748 77.1381 205.556 76.9428 205.312C76.7507 205.067 76.6059 204.787 76.5082 204.472C76.4138 204.153 76.3666 203.816 76.3666 203.461V203.256C76.3666 202.901 76.4138 202.566 76.5082 202.25C76.6059 201.931 76.7507 201.649 76.9428 201.405C77.1381 201.161 77.3822 200.969 77.6752 200.829C77.9714 200.689 78.3181 200.619 78.7152 200.619C79.1286 200.619 79.49 200.704 79.7992 200.873C80.1085 201.039 80.351 201.267 80.5268 201.557C80.7058 201.843 80.8035 202.169 80.8197 202.533H79.9604C79.9441 202.315 79.8822 202.118 79.7748 201.942C79.6706 201.767 79.5274 201.627 79.3451 201.522C79.1661 201.415 78.9561 201.361 78.7152 201.361C78.4385 201.361 78.2058 201.417 78.017 201.527C77.8314 201.635 77.6833 201.781 77.5727 201.967C77.4652 202.149 77.3871 202.353 77.3383 202.577C77.2927 202.799 77.2699 203.025 77.2699 203.256V203.461C77.2699 203.692 77.2927 203.92 77.3383 204.145C77.3839 204.369 77.4604 204.573 77.5678 204.755C77.6785 204.937 77.8266 205.084 78.0121 205.194C78.2009 205.302 78.4353 205.355 78.7152 205.355ZM81.7461 203.417V203.305C81.7461 202.924 81.8014 202.571 81.9121 202.245C82.0228 201.916 82.1823 201.632 82.3906 201.391C82.599 201.146 82.8512 200.958 83.1475 200.824C83.4437 200.688 83.7757 200.619 84.1436 200.619C84.5146 200.619 84.8483 200.688 85.1445 200.824C85.444 200.958 85.6979 201.146 85.9062 201.391C86.1178 201.632 86.279 201.916 86.3896 202.245C86.5003 202.571 86.5557 202.924 86.5557 203.305V203.417C86.5557 203.798 86.5003 204.151 86.3896 204.477C86.279 204.802 86.1178 205.087 85.9062 205.331C85.6979 205.572 85.4456 205.761 85.1494 205.897C84.8564 206.031 84.5244 206.098 84.1533 206.098C83.7822 206.098 83.4486 206.031 83.1523 205.897C82.8561 205.761 82.6022 205.572 82.3906 205.331C82.1823 205.087 82.0228 204.802 81.9121 204.477C81.8014 204.151 81.7461 203.798 81.7461 203.417ZM82.6494 203.305V203.417C82.6494 203.681 82.6803 203.93 82.7422 204.164C82.804 204.395 82.8968 204.6 83.0205 204.779C83.1475 204.958 83.3053 205.1 83.4941 205.204C83.6829 205.305 83.9027 205.355 84.1533 205.355C84.4007 205.355 84.6172 205.305 84.8027 205.204C84.9915 205.1 85.1478 204.958 85.2715 204.779C85.3952 204.6 85.488 204.395 85.5498 204.164C85.6149 203.93 85.6475 203.681 85.6475 203.417V203.305C85.6475 203.044 85.6149 202.799 85.5498 202.567C85.488 202.333 85.3936 202.126 85.2666 201.947C85.1429 201.765 84.9867 201.622 84.7979 201.518C84.6123 201.413 84.3942 201.361 84.1436 201.361C83.8962 201.361 83.6781 201.413 83.4893 201.518C83.3037 201.622 83.1475 201.765 83.0205 201.947C82.8968 202.126 82.804 202.333 82.7422 202.567C82.6803 202.799 82.6494 203.044 82.6494 203.305Z" fill="white"/>
<path d="M121.889 203.925V198.891H122.827V203.925C122.827 204.394 122.731 204.789 122.539 205.111C122.347 205.434 122.082 205.679 121.743 205.849C121.408 206.015 121.022 206.098 120.586 206.098C120.15 206.098 119.762 206.023 119.424 205.873C119.085 205.723 118.82 205.495 118.628 205.189C118.436 204.883 118.34 204.498 118.34 204.032H119.282C119.282 204.332 119.337 204.577 119.448 204.77C119.559 204.962 119.712 205.103 119.907 205.194C120.106 205.285 120.332 205.331 120.586 205.331C120.833 205.331 121.054 205.279 121.25 205.175C121.448 205.067 121.605 204.91 121.719 204.701C121.832 204.49 121.889 204.231 121.889 203.925ZM127.669 204.779V200.717H128.578V206H127.713L127.669 204.779ZM127.84 203.666L128.216 203.656C128.216 204.008 128.179 204.333 128.104 204.633C128.032 204.929 127.915 205.186 127.752 205.404C127.59 205.622 127.376 205.793 127.113 205.917C126.849 206.037 126.528 206.098 126.151 206.098C125.894 206.098 125.658 206.06 125.443 205.985C125.231 205.91 125.049 205.795 124.896 205.639C124.743 205.482 124.624 205.279 124.539 205.028C124.458 204.778 124.417 204.477 124.417 204.125V200.717H125.321V204.135C125.321 204.372 125.347 204.569 125.399 204.726C125.454 204.879 125.527 205.001 125.619 205.092C125.713 205.18 125.817 205.242 125.931 205.277C126.048 205.313 126.169 205.331 126.292 205.331C126.676 205.331 126.981 205.258 127.205 205.111C127.43 204.962 127.591 204.761 127.689 204.511C127.79 204.257 127.84 203.975 127.84 203.666ZM131.008 201.547V206H130.104V200.717H130.983L131.008 201.547ZM132.658 200.688L132.653 201.527C132.578 201.511 132.507 201.501 132.438 201.498C132.373 201.492 132.299 201.488 132.214 201.488C132.006 201.488 131.822 201.521 131.662 201.586C131.503 201.651 131.368 201.742 131.257 201.859C131.146 201.977 131.058 202.117 130.993 202.279C130.931 202.439 130.891 202.615 130.871 202.807L130.617 202.953C130.617 202.634 130.648 202.335 130.71 202.055C130.775 201.775 130.874 201.527 131.008 201.312C131.141 201.094 131.311 200.925 131.516 200.805C131.724 200.681 131.971 200.619 132.258 200.619C132.323 200.619 132.398 200.627 132.482 200.644C132.567 200.657 132.626 200.671 132.658 200.688ZM134.625 200.717V206H133.716V200.717H134.625ZM133.648 199.315C133.648 199.169 133.692 199.045 133.78 198.944C133.871 198.843 134.004 198.793 134.18 198.793C134.353 198.793 134.485 198.843 134.576 198.944C134.67 199.045 134.717 199.169 134.717 199.315C134.717 199.455 134.67 199.576 134.576 199.677C134.485 199.774 134.353 199.823 134.18 199.823C134.004 199.823 133.871 199.774 133.78 199.677C133.692 199.576 133.648 199.455 133.648 199.315ZM139.555 204.975V198.5H140.463V206H139.633L139.555 204.975ZM136 203.417V203.314C136 202.911 136.049 202.545 136.147 202.216C136.248 201.884 136.389 201.599 136.571 201.361C136.757 201.124 136.977 200.941 137.231 200.814C137.488 200.684 137.774 200.619 138.09 200.619C138.422 200.619 138.712 200.678 138.959 200.795C139.21 200.909 139.421 201.076 139.594 201.298C139.77 201.516 139.908 201.78 140.009 202.089C140.11 202.398 140.18 202.748 140.219 203.139V203.588C140.183 203.975 140.113 204.324 140.009 204.633C139.908 204.942 139.77 205.206 139.594 205.424C139.421 205.642 139.21 205.81 138.959 205.927C138.709 206.041 138.416 206.098 138.08 206.098C137.771 206.098 137.488 206.031 137.231 205.897C136.977 205.764 136.757 205.577 136.571 205.336C136.389 205.095 136.248 204.812 136.147 204.486C136.049 204.158 136 203.801 136 203.417ZM136.908 203.314V203.417C136.908 203.681 136.934 203.928 136.987 204.159C137.042 204.39 137.126 204.594 137.24 204.77C137.354 204.945 137.499 205.084 137.675 205.185C137.851 205.282 138.061 205.331 138.305 205.331C138.604 205.331 138.85 205.268 139.042 205.141C139.238 205.014 139.394 204.846 139.511 204.638C139.628 204.429 139.719 204.203 139.784 203.959V202.782C139.745 202.603 139.688 202.431 139.613 202.265C139.542 202.095 139.447 201.946 139.33 201.815C139.216 201.682 139.075 201.576 138.905 201.498C138.739 201.42 138.543 201.381 138.315 201.381C138.067 201.381 137.854 201.433 137.675 201.537C137.499 201.638 137.354 201.778 137.24 201.957C137.126 202.133 137.042 202.338 136.987 202.572C136.934 202.803 136.908 203.051 136.908 203.314ZM143.001 200.717V206H142.093V200.717H143.001ZM142.024 199.315C142.024 199.169 142.068 199.045 142.156 198.944C142.247 198.843 142.381 198.793 142.556 198.793C142.729 198.793 142.861 198.843 142.952 198.944C143.046 199.045 143.094 199.169 143.094 199.315C143.094 199.455 143.046 199.576 142.952 199.677C142.861 199.774 142.729 199.823 142.556 199.823C142.381 199.823 142.247 199.774 142.156 199.677C142.068 199.576 142.024 199.455 142.024 199.315ZM146.715 205.355C146.93 205.355 147.129 205.312 147.311 205.224C147.493 205.136 147.643 205.015 147.76 204.862C147.877 204.706 147.944 204.529 147.96 204.33H148.82C148.803 204.643 148.698 204.934 148.502 205.204C148.31 205.471 148.058 205.688 147.746 205.854C147.433 206.016 147.09 206.098 146.715 206.098C146.318 206.098 145.971 206.028 145.675 205.888C145.382 205.748 145.138 205.556 144.943 205.312C144.751 205.067 144.606 204.787 144.508 204.472C144.414 204.153 144.367 203.816 144.367 203.461V203.256C144.367 202.901 144.414 202.566 144.508 202.25C144.606 201.931 144.751 201.649 144.943 201.405C145.138 201.161 145.382 200.969 145.675 200.829C145.971 200.689 146.318 200.619 146.715 200.619C147.129 200.619 147.49 200.704 147.799 200.873C148.108 201.039 148.351 201.267 148.527 201.557C148.706 201.843 148.803 202.169 148.82 202.533H147.96C147.944 202.315 147.882 202.118 147.775 201.942C147.671 201.767 147.527 201.627 147.345 201.522C147.166 201.415 146.956 201.361 146.715 201.361C146.439 201.361 146.206 201.417 146.017 201.527C145.831 201.635 145.683 201.781 145.573 201.967C145.465 202.149 145.387 202.353 145.338 202.577C145.293 202.799 145.27 203.025 145.27 203.256V203.461C145.27 203.692 145.293 203.92 145.338 204.145C145.384 204.369 145.46 204.573 145.568 204.755C145.678 204.937 145.827 205.084 146.012 205.194C146.201 205.302 146.435 205.355 146.715 205.355ZM149.746 203.417V203.305C149.746 202.924 149.801 202.571 149.912 202.245C150.023 201.916 150.182 201.632 150.391 201.391C150.599 201.146 150.851 200.958 151.147 200.824C151.444 200.688 151.776 200.619 152.144 200.619C152.515 200.619 152.848 200.688 153.145 200.824C153.444 200.958 153.698 201.146 153.906 201.391C154.118 201.632 154.279 201.916 154.39 202.245C154.5 202.571 154.556 202.924 154.556 203.305V203.417C154.556 203.798 154.5 204.151 154.39 204.477C154.279 204.802 154.118 205.087 153.906 205.331C153.698 205.572 153.446 205.761 153.149 205.897C152.856 206.031 152.524 206.098 152.153 206.098C151.782 206.098 151.449 206.031 151.152 205.897C150.856 205.761 150.602 205.572 150.391 205.331C150.182 205.087 150.023 204.802 149.912 204.477C149.801 204.151 149.746 203.798 149.746 203.417ZM150.649 203.305V203.417C150.649 203.681 150.68 203.93 150.742 204.164C150.804 204.395 150.897 204.6 151.021 204.779C151.147 204.958 151.305 205.1 151.494 205.204C151.683 205.305 151.903 205.355 152.153 205.355C152.401 205.355 152.617 205.305 152.803 205.204C152.992 205.1 153.148 204.958 153.271 204.779C153.395 204.6 153.488 204.395 153.55 204.164C153.615 203.93 153.647 203.681 153.647 203.417V203.305C153.647 203.044 153.615 202.799 153.55 202.567C153.488 202.333 153.394 202.126 153.267 201.947C153.143 201.765 152.987 201.622 152.798 201.518C152.612 201.413 152.394 201.361 152.144 201.361C151.896 201.361 151.678 201.413 151.489 201.518C151.304 201.622 151.147 201.765 151.021 201.947C150.897 202.126 150.804 202.333 150.742 202.567C150.68 202.799 150.649 203.044 150.649 203.305Z" fill="white"/>
<path d="M183.678 198.891H186.031C186.565 198.891 187.016 198.972 187.384 199.135C187.755 199.298 188.037 199.538 188.229 199.857C188.424 200.173 188.522 200.562 188.522 201.024C188.522 201.35 188.455 201.648 188.321 201.918C188.191 202.185 188.002 202.413 187.755 202.602C187.511 202.787 187.218 202.925 186.876 203.017L186.612 203.119H184.401L184.391 202.353H186.061C186.399 202.353 186.681 202.294 186.905 202.177C187.13 202.056 187.299 201.895 187.413 201.693C187.527 201.492 187.584 201.269 187.584 201.024C187.584 200.751 187.53 200.512 187.423 200.307C187.316 200.102 187.146 199.944 186.915 199.833C186.687 199.719 186.393 199.662 186.031 199.662H184.62V206H183.678V198.891ZM187.833 206L186.105 202.777L187.086 202.772L188.839 205.941V206H187.833ZM192.046 206.098C191.678 206.098 191.344 206.036 191.045 205.912C190.749 205.785 190.493 205.608 190.278 205.38C190.067 205.152 189.904 204.882 189.79 204.569C189.676 204.257 189.619 203.915 189.619 203.544V203.339C189.619 202.909 189.682 202.527 189.809 202.191C189.936 201.853 190.109 201.566 190.327 201.332C190.545 201.098 190.792 200.92 191.069 200.8C191.346 200.679 191.632 200.619 191.929 200.619C192.306 200.619 192.632 200.684 192.905 200.814C193.182 200.945 193.408 201.127 193.584 201.361C193.76 201.592 193.89 201.866 193.974 202.182C194.059 202.494 194.101 202.836 194.101 203.207V203.612H190.156V202.875H193.198V202.807C193.185 202.572 193.136 202.344 193.052 202.123C192.97 201.902 192.84 201.719 192.661 201.576C192.482 201.433 192.238 201.361 191.929 201.361C191.723 201.361 191.535 201.405 191.362 201.493C191.19 201.578 191.041 201.705 190.918 201.874C190.794 202.043 190.698 202.25 190.63 202.494C190.561 202.738 190.527 203.02 190.527 203.339V203.544C190.527 203.795 190.561 204.031 190.63 204.252C190.701 204.47 190.804 204.662 190.937 204.828C191.074 204.994 191.238 205.124 191.43 205.219C191.626 205.313 191.847 205.36 192.095 205.36C192.414 205.36 192.684 205.295 192.905 205.165C193.126 205.035 193.32 204.861 193.486 204.643L194.033 205.077C193.919 205.25 193.774 205.414 193.598 205.57C193.423 205.727 193.206 205.854 192.949 205.951C192.695 206.049 192.394 206.098 192.046 206.098ZM196.287 198.5V206H195.379V198.5H196.287ZM198.869 200.717V206H197.961V200.717H198.869ZM197.893 199.315C197.893 199.169 197.937 199.045 198.024 198.944C198.116 198.843 198.249 198.793 198.425 198.793C198.597 198.793 198.729 198.843 198.82 198.944C198.915 199.045 198.962 199.169 198.962 199.315C198.962 199.455 198.915 199.576 198.82 199.677C198.729 199.774 198.597 199.823 198.425 199.823C198.249 199.823 198.116 199.774 198.024 199.677C197.937 199.576 197.893 199.455 197.893 199.315ZM203.892 200.717H204.712V205.888C204.712 206.353 204.618 206.75 204.429 207.079C204.24 207.408 203.977 207.657 203.638 207.826C203.303 207.999 202.916 208.085 202.476 208.085C202.294 208.085 202.079 208.056 201.832 207.997C201.587 207.942 201.347 207.846 201.109 207.709C200.875 207.576 200.678 207.395 200.518 207.167L200.992 206.63C201.213 206.897 201.444 207.082 201.685 207.187C201.929 207.291 202.17 207.343 202.408 207.343C202.694 207.343 202.942 207.289 203.15 207.182C203.358 207.074 203.519 206.915 203.633 206.703C203.751 206.495 203.809 206.238 203.809 205.932V201.879L203.892 200.717ZM200.254 203.417V203.314C200.254 202.911 200.302 202.545 200.396 202.216C200.494 201.884 200.632 201.599 200.811 201.361C200.993 201.124 201.213 200.941 201.47 200.814C201.727 200.684 202.017 200.619 202.339 200.619C202.671 200.619 202.961 200.678 203.209 200.795C203.459 200.909 203.671 201.076 203.843 201.298C204.019 201.516 204.157 201.78 204.258 202.089C204.359 202.398 204.429 202.748 204.468 203.139V203.588C204.433 203.975 204.363 204.324 204.258 204.633C204.157 204.942 204.019 205.206 203.843 205.424C203.671 205.642 203.459 205.81 203.209 205.927C202.958 206.041 202.665 206.098 202.33 206.098C202.014 206.098 201.727 206.031 201.47 205.897C201.216 205.764 200.998 205.577 200.816 205.336C200.634 205.095 200.494 204.812 200.396 204.486C200.302 204.158 200.254 203.801 200.254 203.417ZM201.158 203.314V203.417C201.158 203.681 201.184 203.928 201.236 204.159C201.291 204.39 201.374 204.594 201.485 204.77C201.599 204.945 201.744 205.084 201.92 205.185C202.095 205.282 202.305 205.331 202.549 205.331C202.849 205.331 203.096 205.268 203.292 205.141C203.487 205.014 203.642 204.846 203.755 204.638C203.873 204.429 203.964 204.203 204.029 203.959V202.782C203.993 202.603 203.938 202.431 203.863 202.265C203.791 202.095 203.697 201.946 203.58 201.815C203.466 201.682 203.324 201.576 203.155 201.498C202.986 201.42 202.787 201.381 202.559 201.381C202.312 201.381 202.099 201.433 201.92 201.537C201.744 201.638 201.599 201.778 201.485 201.957C201.374 202.133 201.291 202.338 201.236 202.572C201.184 202.803 201.158 203.051 201.158 203.314ZM207.216 200.717V206H206.308V200.717H207.216ZM206.239 199.315C206.239 199.169 206.283 199.045 206.371 198.944C206.462 198.843 206.596 198.793 206.772 198.793C206.944 198.793 207.076 198.843 207.167 198.944C207.262 199.045 207.309 199.169 207.309 199.315C207.309 199.455 207.262 199.576 207.167 199.677C207.076 199.774 206.944 199.823 206.772 199.823C206.596 199.823 206.462 199.774 206.371 199.677C206.283 199.576 206.239 199.455 206.239 199.315ZM208.577 203.417V203.305C208.577 202.924 208.632 202.571 208.743 202.245C208.854 201.916 209.013 201.632 209.221 201.391C209.43 201.146 209.682 200.958 209.978 200.824C210.275 200.688 210.607 200.619 210.974 200.619C211.346 200.619 211.679 200.688 211.975 200.824C212.275 200.958 212.529 201.146 212.737 201.391C212.949 201.632 213.11 201.916 213.221 202.245C213.331 202.571 213.387 202.924 213.387 203.305V203.417C213.387 203.798 213.331 204.151 213.221 204.477C213.11 204.802 212.949 205.087 212.737 205.331C212.529 205.572 212.276 205.761 211.98 205.897C211.687 206.031 211.355 206.098 210.984 206.098C210.613 206.098 210.279 206.031 209.983 205.897C209.687 205.761 209.433 205.572 209.221 205.331C209.013 205.087 208.854 204.802 208.743 204.477C208.632 204.151 208.577 203.798 208.577 203.417ZM209.48 203.305V203.417C209.48 203.681 209.511 203.93 209.573 204.164C209.635 204.395 209.728 204.6 209.851 204.779C209.978 204.958 210.136 205.1 210.325 205.204C210.514 205.305 210.734 205.355 210.984 205.355C211.232 205.355 211.448 205.305 211.634 205.204C211.822 205.1 211.979 204.958 212.102 204.779C212.226 204.6 212.319 204.395 212.381 204.164C212.446 203.93 212.478 203.681 212.478 203.417V203.305C212.478 203.044 212.446 202.799 212.381 202.567C212.319 202.333 212.224 202.126 212.097 201.947C211.974 201.765 211.818 201.622 211.629 201.518C211.443 201.413 211.225 201.361 210.974 201.361C210.727 201.361 210.509 201.413 210.32 201.518C210.135 201.622 209.978 201.765 209.851 201.947C209.728 202.126 209.635 202.333 209.573 202.567C209.511 202.799 209.48 203.044 209.48 203.305ZM217.746 204.599C217.746 204.468 217.716 204.348 217.658 204.237C217.602 204.123 217.487 204.021 217.311 203.93C217.138 203.835 216.878 203.754 216.53 203.686C216.237 203.624 215.971 203.55 215.734 203.466C215.499 203.381 215.299 203.279 215.133 203.158C214.97 203.038 214.845 202.896 214.757 202.733C214.669 202.571 214.625 202.38 214.625 202.162C214.625 201.954 214.671 201.757 214.762 201.571C214.857 201.386 214.988 201.221 215.158 201.078C215.33 200.935 215.537 200.823 215.778 200.741C216.019 200.66 216.287 200.619 216.583 200.619C217.007 200.619 217.368 200.694 217.667 200.844C217.967 200.993 218.196 201.194 218.356 201.444C218.515 201.692 218.595 201.967 218.595 202.27H217.692C217.692 202.123 217.648 201.981 217.56 201.845C217.475 201.705 217.35 201.589 217.184 201.498C217.021 201.407 216.821 201.361 216.583 201.361C216.333 201.361 216.129 201.4 215.973 201.479C215.82 201.553 215.708 201.649 215.636 201.767C215.568 201.884 215.534 202.007 215.534 202.138C215.534 202.235 215.55 202.323 215.582 202.401C215.618 202.476 215.68 202.546 215.768 202.611C215.856 202.673 215.98 202.732 216.139 202.787C216.299 202.842 216.502 202.898 216.749 202.953C217.182 203.051 217.539 203.168 217.819 203.305C218.099 203.441 218.307 203.609 218.444 203.808C218.58 204.006 218.649 204.247 218.649 204.53C218.649 204.761 218.6 204.973 218.502 205.165C218.408 205.357 218.27 205.523 218.087 205.663C217.908 205.8 217.693 205.907 217.443 205.985C217.195 206.06 216.917 206.098 216.608 206.098C216.142 206.098 215.748 206.015 215.426 205.849C215.104 205.683 214.86 205.468 214.694 205.204C214.528 204.94 214.445 204.662 214.445 204.369H215.353C215.366 204.617 215.438 204.813 215.568 204.96C215.698 205.103 215.857 205.206 216.046 205.268C216.235 205.326 216.422 205.355 216.608 205.355C216.855 205.355 217.062 205.323 217.228 205.258C217.397 205.193 217.526 205.103 217.614 204.989C217.702 204.875 217.746 204.745 217.746 204.599ZM219.746 203.417V203.305C219.746 202.924 219.801 202.571 219.912 202.245C220.023 201.916 220.182 201.632 220.391 201.391C220.599 201.146 220.851 200.958 221.147 200.824C221.444 200.688 221.776 200.619 222.144 200.619C222.515 200.619 222.848 200.688 223.145 200.824C223.444 200.958 223.698 201.146 223.906 201.391C224.118 201.632 224.279 201.916 224.39 202.245C224.5 202.571 224.556 202.924 224.556 203.305V203.417C224.556 203.798 224.5 204.151 224.39 204.477C224.279 204.802 224.118 205.087 223.906 205.331C223.698 205.572 223.446 205.761 223.149 205.897C222.856 206.031 222.524 206.098 222.153 206.098C221.782 206.098 221.449 206.031 221.152 205.897C220.856 205.761 220.602 205.572 220.391 205.331C220.182 205.087 220.023 204.802 219.912 204.477C219.801 204.151 219.746 203.798 219.746 203.417ZM220.649 203.305V203.417C220.649 203.681 220.68 203.93 220.742 204.164C220.804 204.395 220.897 204.6 221.021 204.779C221.147 204.958 221.305 205.1 221.494 205.204C221.683 205.305 221.903 205.355 222.153 205.355C222.401 205.355 222.617 205.305 222.803 205.204C222.992 205.1 223.148 204.958 223.271 204.779C223.395 204.6 223.488 204.395 223.55 204.164C223.615 203.93 223.647 203.681 223.647 203.417V203.305C223.647 203.044 223.615 202.799 223.55 202.567C223.488 202.333 223.394 202.126 223.267 201.947C223.143 201.765 222.987 201.622 222.798 201.518C222.612 201.413 222.394 201.361 222.144 201.361C221.896 201.361 221.678 201.413 221.489 201.518C221.304 201.622 221.147 201.765 221.021 201.947C220.897 202.126 220.804 202.333 220.742 202.567C220.68 202.799 220.649 203.044 220.649 203.305Z" fill="white"/>
<path d="M249.718 198.521L247.364 205H246.402L249.112 197.891H249.732L249.718 198.521ZM251.69 205L249.332 198.521L249.317 197.891H249.937L252.657 205H251.69ZM251.568 202.368V203.14H247.574V202.368H251.568ZM256.699 203.599C256.699 203.468 256.669 203.348 256.611 203.237C256.555 203.123 256.44 203.021 256.264 202.93C256.092 202.835 255.831 202.754 255.483 202.686C255.19 202.624 254.925 202.55 254.687 202.466C254.453 202.381 254.252 202.279 254.086 202.158C253.924 202.038 253.798 201.896 253.71 201.733C253.622 201.571 253.579 201.38 253.579 201.162C253.579 200.954 253.624 200.757 253.715 200.571C253.81 200.386 253.941 200.221 254.111 200.078C254.283 199.935 254.49 199.823 254.731 199.741C254.972 199.66 255.24 199.619 255.537 199.619C255.96 199.619 256.321 199.694 256.621 199.844C256.92 199.993 257.149 200.194 257.309 200.444C257.468 200.692 257.548 200.967 257.548 201.27H256.645C256.645 201.123 256.601 200.981 256.513 200.845C256.428 200.705 256.303 200.589 256.137 200.498C255.974 200.407 255.774 200.361 255.537 200.361C255.286 200.361 255.082 200.4 254.926 200.479C254.773 200.553 254.661 200.649 254.589 200.767C254.521 200.884 254.487 201.007 254.487 201.138C254.487 201.235 254.503 201.323 254.536 201.401C254.571 201.476 254.633 201.546 254.721 201.611C254.809 201.673 254.933 201.732 255.092 201.787C255.252 201.842 255.455 201.898 255.703 201.953C256.135 202.051 256.492 202.168 256.772 202.305C257.052 202.441 257.26 202.609 257.397 202.808C257.534 203.006 257.602 203.247 257.602 203.53C257.602 203.761 257.553 203.973 257.455 204.165C257.361 204.357 257.223 204.523 257.04 204.663C256.861 204.8 256.647 204.907 256.396 204.985C256.149 205.06 255.87 205.098 255.561 205.098C255.095 205.098 254.702 205.015 254.379 204.849C254.057 204.683 253.813 204.468 253.647 204.204C253.481 203.94 253.398 203.662 253.398 203.369H254.306C254.319 203.617 254.391 203.813 254.521 203.96C254.651 204.103 254.811 204.206 254.999 204.268C255.188 204.326 255.375 204.355 255.561 204.355C255.808 204.355 256.015 204.323 256.181 204.258C256.35 204.193 256.479 204.103 256.567 203.989C256.655 203.875 256.699 203.745 256.699 203.599ZM262.015 203.599C262.015 203.468 261.985 203.348 261.927 203.237C261.871 203.123 261.756 203.021 261.58 202.93C261.408 202.835 261.147 202.754 260.799 202.686C260.506 202.624 260.241 202.55 260.003 202.466C259.769 202.381 259.568 202.279 259.402 202.158C259.24 202.038 259.114 201.896 259.026 201.733C258.938 201.571 258.895 201.38 258.895 201.162C258.895 200.954 258.94 200.757 259.031 200.571C259.126 200.386 259.257 200.221 259.427 200.078C259.599 199.935 259.806 199.823 260.047 199.741C260.288 199.66 260.556 199.619 260.853 199.619C261.276 199.619 261.637 199.694 261.937 199.844C262.236 199.993 262.465 200.194 262.625 200.444C262.785 200.692 262.864 200.967 262.864 201.27H261.961C261.961 201.123 261.917 200.981 261.829 200.845C261.744 200.705 261.619 200.589 261.453 200.498C261.29 200.407 261.09 200.361 260.853 200.361C260.602 200.361 260.398 200.4 260.242 200.479C260.089 200.553 259.977 200.649 259.905 200.767C259.837 200.884 259.803 201.007 259.803 201.138C259.803 201.235 259.819 201.323 259.852 201.401C259.887 201.476 259.949 201.546 260.037 201.611C260.125 201.673 260.249 201.732 260.408 201.787C260.568 201.842 260.771 201.898 261.019 201.953C261.451 202.051 261.808 202.168 262.088 202.305C262.368 202.441 262.576 202.609 262.713 202.808C262.85 203.006 262.918 203.247 262.918 203.53C262.918 203.761 262.869 203.973 262.771 204.165C262.677 204.357 262.539 204.523 262.356 204.663C262.177 204.8 261.963 204.907 261.712 204.985C261.465 205.06 261.186 205.098 260.877 205.098C260.411 205.098 260.018 205.015 259.695 204.849C259.373 204.683 259.129 204.468 258.963 204.204C258.797 203.94 258.714 203.662 258.714 203.369H259.622C259.635 203.617 259.707 203.813 259.837 203.96C259.967 204.103 260.127 204.206 260.315 204.268C260.504 204.326 260.691 204.355 260.877 204.355C261.124 204.355 261.331 204.323 261.497 204.258C261.666 204.193 261.795 204.103 261.883 203.989C261.971 203.875 262.015 203.745 262.015 203.599ZM265.236 199.717V205H264.328V199.717H265.236ZM264.259 198.315C264.259 198.169 264.303 198.045 264.391 197.944C264.482 197.843 264.616 197.793 264.792 197.793C264.964 197.793 265.096 197.843 265.187 197.944C265.282 198.045 265.329 198.169 265.329 198.315C265.329 198.455 265.282 198.576 265.187 198.677C265.096 198.774 264.964 198.823 264.792 198.823C264.616 198.823 264.482 198.774 264.391 198.677C264.303 198.576 264.259 198.455 264.259 198.315ZM269.912 203.599C269.912 203.468 269.883 203.348 269.824 203.237C269.769 203.123 269.654 203.021 269.478 202.93C269.305 202.835 269.045 202.754 268.696 202.686C268.404 202.624 268.138 202.55 267.901 202.466C267.666 202.381 267.466 202.279 267.3 202.158C267.137 202.038 267.012 201.896 266.924 201.733C266.836 201.571 266.792 201.38 266.792 201.162C266.792 200.954 266.838 200.757 266.929 200.571C267.023 200.386 267.155 200.221 267.324 200.078C267.497 199.935 267.704 199.823 267.945 199.741C268.185 199.66 268.454 199.619 268.75 199.619C269.173 199.619 269.535 199.694 269.834 199.844C270.134 199.993 270.363 200.194 270.523 200.444C270.682 200.692 270.762 200.967 270.762 201.27H269.859C269.859 201.123 269.815 200.981 269.727 200.845C269.642 200.705 269.517 200.589 269.351 200.498C269.188 200.407 268.988 200.361 268.75 200.361C268.5 200.361 268.296 200.4 268.14 200.479C267.987 200.553 267.875 200.649 267.803 200.767C267.735 200.884 267.7 201.007 267.7 201.138C267.7 201.235 267.717 201.323 267.749 201.401C267.785 201.476 267.847 201.546 267.935 201.611C268.023 201.673 268.146 201.732 268.306 201.787C268.465 201.842 268.669 201.898 268.916 201.953C269.349 202.051 269.706 202.168 269.986 202.305C270.265 202.441 270.474 202.609 270.611 202.808C270.747 203.006 270.816 203.247 270.816 203.53C270.816 203.761 270.767 203.973 270.669 204.165C270.575 204.357 270.436 204.523 270.254 204.663C270.075 204.8 269.86 204.907 269.61 204.985C269.362 205.06 269.084 205.098 268.775 205.098C268.309 205.098 267.915 205.015 267.593 204.849C267.271 204.683 267.027 204.468 266.861 204.204C266.695 203.94 266.612 203.662 266.612 203.369H267.52C267.533 203.617 267.604 203.813 267.735 203.96C267.865 204.103 268.024 204.206 268.213 204.268C268.402 204.326 268.589 204.355 268.775 204.355C269.022 204.355 269.229 204.323 269.395 204.258C269.564 204.193 269.693 204.103 269.78 203.989C269.868 203.875 269.912 203.745 269.912 203.599ZM274.364 199.717V200.41H271.508V199.717H274.364ZM272.474 198.433H273.378V203.691C273.378 203.87 273.405 204.006 273.461 204.097C273.516 204.188 273.588 204.248 273.676 204.277C273.763 204.307 273.858 204.321 273.959 204.321C274.034 204.321 274.112 204.315 274.193 204.302C274.278 204.285 274.341 204.272 274.384 204.263L274.388 205C274.317 205.023 274.222 205.044 274.105 205.063C273.991 205.086 273.853 205.098 273.69 205.098C273.469 205.098 273.265 205.054 273.08 204.966C272.894 204.878 272.746 204.731 272.636 204.526C272.528 204.318 272.474 204.038 272.474 203.687V198.433ZM277.766 205.098C277.398 205.098 277.065 205.036 276.765 204.912C276.469 204.785 276.213 204.608 275.998 204.38C275.787 204.152 275.624 203.882 275.51 203.569C275.396 203.257 275.339 202.915 275.339 202.544V202.339C275.339 201.909 275.403 201.527 275.53 201.191C275.657 200.853 275.829 200.566 276.047 200.332C276.265 200.098 276.513 199.92 276.789 199.8C277.066 199.679 277.353 199.619 277.649 199.619C278.026 199.619 278.352 199.684 278.625 199.814C278.902 199.945 279.128 200.127 279.304 200.361C279.48 200.592 279.61 200.866 279.695 201.182C279.779 201.494 279.822 201.836 279.822 202.207V202.612H275.876V201.875H278.918V201.807C278.905 201.572 278.857 201.344 278.772 201.123C278.69 200.902 278.56 200.719 278.381 200.576C278.202 200.433 277.958 200.361 277.649 200.361C277.444 200.361 277.255 200.405 277.082 200.493C276.91 200.578 276.762 200.705 276.638 200.874C276.514 201.043 276.418 201.25 276.35 201.494C276.282 201.738 276.247 202.02 276.247 202.339V202.544C276.247 202.795 276.282 203.031 276.35 203.252C276.422 203.47 276.524 203.662 276.658 203.828C276.794 203.994 276.959 204.124 277.151 204.219C277.346 204.313 277.567 204.36 277.815 204.36C278.134 204.36 278.404 204.295 278.625 204.165C278.847 204.035 279.04 203.861 279.206 203.643L279.753 204.077C279.639 204.25 279.495 204.414 279.319 204.57C279.143 204.727 278.926 204.854 278.669 204.951C278.415 205.049 278.114 205.098 277.766 205.098ZM281.93 200.845V205H281.026V199.717H281.881L281.93 200.845ZM281.715 202.158L281.339 202.144C281.342 201.782 281.396 201.449 281.5 201.143C281.604 200.833 281.751 200.565 281.939 200.337C282.128 200.109 282.353 199.933 282.613 199.81C282.877 199.683 283.168 199.619 283.487 199.619C283.748 199.619 283.982 199.655 284.19 199.727C284.399 199.795 284.576 199.906 284.723 200.059C284.872 200.212 284.986 200.41 285.064 200.654C285.143 200.895 285.182 201.19 285.182 201.538V205H284.273V201.528C284.273 201.252 284.233 201.03 284.151 200.864C284.07 200.695 283.951 200.573 283.795 200.498C283.639 200.42 283.447 200.381 283.219 200.381C282.994 200.381 282.789 200.428 282.604 200.522C282.421 200.617 282.263 200.747 282.13 200.913C282 201.079 281.897 201.27 281.822 201.484C281.751 201.696 281.715 201.921 281.715 202.158ZM288.916 199.717V200.41H286.059V199.717H288.916ZM287.026 198.433H287.929V203.691C287.929 203.87 287.957 204.006 288.012 204.097C288.068 204.188 288.139 204.248 288.227 204.277C288.315 204.307 288.409 204.321 288.51 204.321C288.585 204.321 288.663 204.315 288.745 204.302C288.829 204.285 288.893 204.272 288.935 204.263L288.94 205C288.868 205.023 288.774 205.044 288.657 205.063C288.543 205.086 288.405 205.098 288.242 205.098C288.02 205.098 287.817 205.054 287.631 204.966C287.446 204.878 287.298 204.731 287.187 204.526C287.08 204.318 287.026 204.038 287.026 203.687V198.433ZM292.318 205.098C291.95 205.098 291.616 205.036 291.317 204.912C291.02 204.785 290.765 204.608 290.55 204.38C290.338 204.152 290.176 203.882 290.062 203.569C289.948 203.257 289.891 202.915 289.891 202.544V202.339C289.891 201.909 289.954 201.527 290.081 201.191C290.208 200.853 290.381 200.566 290.599 200.332C290.817 200.098 291.064 199.92 291.341 199.8C291.618 199.679 291.904 199.619 292.2 199.619C292.578 199.619 292.904 199.684 293.177 199.814C293.454 199.945 293.68 200.127 293.856 200.361C294.031 200.592 294.162 200.866 294.246 201.182C294.331 201.494 294.373 201.836 294.373 202.207V202.612H290.428V201.875H293.47V201.807C293.457 201.572 293.408 201.344 293.323 201.123C293.242 200.902 293.112 200.719 292.933 200.576C292.754 200.433 292.51 200.361 292.2 200.361C291.995 200.361 291.807 200.405 291.634 200.493C291.461 200.578 291.313 200.705 291.19 200.874C291.066 201.043 290.97 201.25 290.902 201.494C290.833 201.738 290.799 202.02 290.799 202.339V202.544C290.799 202.795 290.833 203.031 290.902 203.252C290.973 203.47 291.076 203.662 291.209 203.828C291.346 203.994 291.51 204.124 291.702 204.219C291.898 204.313 292.119 204.36 292.366 204.36C292.685 204.36 292.956 204.295 293.177 204.165C293.398 204.035 293.592 203.861 293.758 203.643L294.305 204.077C294.191 204.25 294.046 204.414 293.87 204.57C293.695 204.727 293.478 204.854 293.221 204.951C292.967 205.049 292.666 205.098 292.318 205.098ZM261.15 219.203C261.15 219.037 261.124 218.891 261.072 218.764C261.023 218.633 260.936 218.516 260.809 218.412C260.685 218.308 260.512 218.209 260.291 218.114C260.073 218.02 259.796 217.924 259.461 217.826C259.109 217.722 258.792 217.606 258.509 217.479C258.226 217.349 257.983 217.201 257.781 217.035C257.579 216.869 257.425 216.679 257.317 216.464C257.21 216.249 257.156 216.003 257.156 215.727C257.156 215.45 257.213 215.194 257.327 214.96C257.441 214.726 257.604 214.522 257.815 214.35C258.03 214.174 258.286 214.037 258.582 213.939C258.878 213.842 259.209 213.793 259.573 213.793C260.107 213.793 260.56 213.896 260.931 214.101C261.305 214.302 261.59 214.568 261.785 214.896C261.98 215.222 262.078 215.57 262.078 215.941H261.141C261.141 215.674 261.084 215.438 260.97 215.233C260.856 215.025 260.683 214.862 260.452 214.745C260.221 214.625 259.928 214.564 259.573 214.564C259.238 214.564 258.961 214.615 258.743 214.716C258.525 214.817 258.362 214.953 258.255 215.126C258.151 215.299 258.099 215.495 258.099 215.717C258.099 215.867 258.13 216.003 258.191 216.127C258.257 216.247 258.356 216.36 258.489 216.464C258.626 216.568 258.799 216.664 259.007 216.752C259.218 216.84 259.471 216.924 259.764 217.006C260.167 217.12 260.516 217.247 260.809 217.387C261.102 217.527 261.342 217.685 261.531 217.86C261.723 218.033 261.865 218.23 261.956 218.451C262.05 218.669 262.098 218.917 262.098 219.193C262.098 219.483 262.039 219.745 261.922 219.979C261.805 220.214 261.637 220.414 261.419 220.58C261.201 220.746 260.939 220.875 260.633 220.966C260.33 221.054 259.992 221.098 259.617 221.098C259.288 221.098 258.965 221.052 258.646 220.961C258.33 220.87 258.042 220.733 257.781 220.551C257.524 220.368 257.317 220.144 257.161 219.877C257.008 219.607 256.932 219.294 256.932 218.939H257.869C257.869 219.184 257.916 219.394 258.011 219.569C258.105 219.742 258.234 219.885 258.396 219.999C258.562 220.113 258.75 220.198 258.958 220.253C259.17 220.305 259.389 220.331 259.617 220.331C259.946 220.331 260.224 220.285 260.452 220.194C260.68 220.103 260.853 219.973 260.97 219.804C261.09 219.634 261.15 219.434 261.15 219.203ZM263.073 218.417V218.305C263.073 217.924 263.128 217.571 263.239 217.245C263.35 216.916 263.509 216.632 263.717 216.391C263.926 216.146 264.178 215.958 264.474 215.824C264.77 215.688 265.102 215.619 265.47 215.619C265.841 215.619 266.175 215.688 266.471 215.824C266.771 215.958 267.025 216.146 267.233 216.391C267.445 216.632 267.606 216.916 267.716 217.245C267.827 217.571 267.882 217.924 267.882 218.305V218.417C267.882 218.798 267.827 219.151 267.716 219.477C267.606 219.802 267.445 220.087 267.233 220.331C267.025 220.572 266.772 220.761 266.476 220.897C266.183 221.031 265.851 221.098 265.48 221.098C265.109 221.098 264.775 221.031 264.479 220.897C264.183 220.761 263.929 220.572 263.717 220.331C263.509 220.087 263.35 219.802 263.239 219.477C263.128 219.151 263.073 218.798 263.073 218.417ZM263.976 218.305V218.417C263.976 218.681 264.007 218.93 264.069 219.164C264.131 219.395 264.224 219.6 264.347 219.779C264.474 219.958 264.632 220.1 264.821 220.204C265.01 220.305 265.229 220.355 265.48 220.355C265.727 220.355 265.944 220.305 266.129 220.204C266.318 220.1 266.475 219.958 266.598 219.779C266.722 219.6 266.815 219.395 266.877 219.164C266.942 218.93 266.974 218.681 266.974 218.417V218.305C266.974 218.044 266.942 217.799 266.877 217.567C266.815 217.333 266.72 217.126 266.593 216.947C266.47 216.765 266.313 216.622 266.125 216.518C265.939 216.413 265.721 216.361 265.47 216.361C265.223 216.361 265.005 216.413 264.816 216.518C264.63 216.622 264.474 216.765 264.347 216.947C264.224 217.126 264.131 217.333 264.069 217.567C264.007 217.799 263.976 218.044 263.976 218.305ZM271.279 220.355C271.494 220.355 271.693 220.312 271.875 220.224C272.057 220.136 272.207 220.015 272.324 219.862C272.442 219.706 272.508 219.529 272.525 219.33H273.384C273.368 219.643 273.262 219.934 273.067 220.204C272.875 220.471 272.622 220.688 272.31 220.854C271.997 221.016 271.654 221.098 271.279 221.098C270.882 221.098 270.536 221.028 270.239 220.888C269.946 220.748 269.702 220.556 269.507 220.312C269.315 220.067 269.17 219.787 269.072 219.472C268.978 219.153 268.931 218.816 268.931 218.461V218.256C268.931 217.901 268.978 217.566 269.072 217.25C269.17 216.931 269.315 216.649 269.507 216.405C269.702 216.161 269.946 215.969 270.239 215.829C270.536 215.689 270.882 215.619 271.279 215.619C271.693 215.619 272.054 215.704 272.363 215.873C272.673 216.039 272.915 216.267 273.091 216.557C273.27 216.843 273.368 217.169 273.384 217.533H272.525C272.508 217.315 272.446 217.118 272.339 216.942C272.235 216.767 272.092 216.627 271.909 216.522C271.73 216.415 271.52 216.361 271.279 216.361C271.003 216.361 270.77 216.417 270.581 216.527C270.396 216.635 270.248 216.781 270.137 216.967C270.029 217.149 269.951 217.353 269.903 217.577C269.857 217.799 269.834 218.025 269.834 218.256V218.461C269.834 218.692 269.857 218.92 269.903 219.145C269.948 219.369 270.025 219.573 270.132 219.755C270.243 219.937 270.391 220.084 270.576 220.194C270.765 220.302 271 220.355 271.279 220.355ZM275.531 215.717V221H274.623V215.717H275.531ZM274.554 214.315C274.554 214.169 274.598 214.045 274.686 213.944C274.777 213.843 274.911 213.793 275.087 213.793C275.259 213.793 275.391 213.843 275.482 213.944C275.577 214.045 275.624 214.169 275.624 214.315C275.624 214.455 275.577 214.576 275.482 214.677C275.391 214.774 275.259 214.823 275.087 214.823C274.911 214.823 274.777 214.774 274.686 214.677C274.598 214.576 274.554 214.455 274.554 214.315ZM280.246 220.097V217.377C280.246 217.169 280.204 216.988 280.12 216.835C280.038 216.679 279.914 216.558 279.748 216.474C279.582 216.389 279.377 216.347 279.133 216.347C278.905 216.347 278.705 216.386 278.533 216.464C278.363 216.542 278.23 216.645 278.132 216.771C278.038 216.898 277.991 217.035 277.991 217.182H277.087C277.087 216.993 277.136 216.806 277.234 216.62C277.331 216.435 277.471 216.267 277.654 216.117C277.839 215.964 278.061 215.844 278.318 215.756C278.578 215.665 278.868 215.619 279.187 215.619C279.571 215.619 279.91 215.684 280.203 215.814C280.499 215.945 280.73 216.142 280.896 216.405C281.065 216.666 281.15 216.993 281.15 217.387V219.848C281.15 220.023 281.164 220.211 281.194 220.409C281.226 220.608 281.274 220.779 281.335 220.922V221H280.393C280.347 220.896 280.312 220.757 280.286 220.585C280.26 220.409 280.246 220.246 280.246 220.097ZM280.403 217.797L280.413 218.432H279.499C279.242 218.432 279.013 218.453 278.811 218.495C278.609 218.534 278.44 218.594 278.303 218.676C278.166 218.757 278.062 218.86 277.991 218.983C277.919 219.104 277.883 219.245 277.883 219.408C277.883 219.574 277.921 219.726 277.996 219.862C278.07 219.999 278.183 220.108 278.332 220.189C278.485 220.268 278.673 220.307 278.894 220.307C279.171 220.307 279.415 220.248 279.626 220.131C279.838 220.014 280.006 219.87 280.129 219.701C280.256 219.532 280.325 219.368 280.334 219.208L280.72 219.643C280.697 219.779 280.635 219.931 280.535 220.097C280.434 220.263 280.299 220.422 280.129 220.575C279.963 220.725 279.765 220.85 279.534 220.951C279.306 221.049 279.049 221.098 278.762 221.098C278.404 221.098 278.09 221.028 277.82 220.888C277.553 220.748 277.344 220.561 277.195 220.326C277.048 220.089 276.975 219.823 276.975 219.53C276.975 219.247 277.03 218.998 277.141 218.783C277.252 218.565 277.411 218.384 277.62 218.241C277.828 218.095 278.079 217.984 278.371 217.909C278.664 217.834 278.992 217.797 279.353 217.797H280.403ZM283.702 213.5V221H282.794V213.5H283.702Z" fill="white"/>
</svg>
