<svg width="150" height="150" viewBox="0 0 150 150" fill="none" xmlns="http://www.w3.org/2000/svg">
<path d="M74.4719 0.00186157C91.2332 -0.11615 107.551 5.38394 120.821 15.6243C134.09 25.8647 143.547 40.255 147.682 56.4987C151.817 72.7423 150.391 89.9028 143.633 105.241C136.874 120.58 125.172 133.213 110.394 141.123C95.6168 149.033 78.6152 151.765 62.1033 148.883C45.5913 146.001 30.5208 137.67 19.2969 125.221C8.07307 112.772 1.34289 96.9222 0.180548 80.2009C-0.981798 63.4797 3.49068 46.8509 12.8842 32.9688L31.5189 45.5781C24.9435 55.2957 21.8127 66.9358 22.6264 78.6406C23.44 90.3455 28.1511 101.441 36.0078 110.155C43.8645 118.869 54.4139 124.7 65.9723 126.718C77.5306 128.736 89.4317 126.823 99.7761 121.286C110.121 115.749 118.312 106.906 123.043 96.169C127.774 85.432 128.772 73.4196 125.878 62.0491C122.983 50.6785 116.363 40.6053 107.074 33.437C97.7856 26.2688 86.3632 22.4187 74.6304 22.5013L74.4719 0.00186157Z" fill="#4062FF"/>
<path d="M10.6557 36.4667C17.5443 24.9639 27.3905 15.5181 39.1691 9.11261C50.9477 2.70715 64.2281 -0.423691 77.6276 0.0460358L76.8393 22.5322C67.4597 22.2034 58.1634 24.395 49.9184 28.8788C41.6733 33.3627 34.781 39.9748 29.959 48.0267L10.6557 36.4667Z" fill="#404040"/>
</svg>
