<svg width="166" height="150" viewBox="0 0 166 150" fill="none" xmlns="http://www.w3.org/2000/svg">
<path d="M74.4719 0.00185898C91.2332 -0.116155 107.551 5.38394 120.821 15.6243C134.09 25.8647 143.547 40.255 147.682 56.4987C151.817 72.7423 150.391 89.9028 143.633 105.241C136.874 120.58 125.172 133.213 110.394 141.123C95.6168 149.033 78.6152 151.765 62.1033 148.883C45.5913 146.001 30.5208 137.67 19.2969 125.221C8.07307 112.772 1.34289 96.9222 0.180548 80.2009C-0.981798 63.4797 3.49068 46.8509 12.8842 32.9688L31.5189 45.5781C24.9435 55.2957 21.8127 66.9358 22.6264 78.6406C23.44 90.3455 28.1511 101.441 36.0078 110.155C43.8645 118.869 54.4139 124.7 65.9723 126.718C77.5307 128.736 89.4317 126.823 99.7761 121.286C110.121 115.749 118.312 106.906 123.043 96.169C127.774 85.432 128.772 73.4196 125.878 62.0491C122.983 50.6785 116.363 40.6053 107.074 33.437C97.7856 26.2688 86.3632 22.4187 74.6304 22.5013L74.4719 0.00185898Z" fill="#4062FF"/>
<path d="M10.6557 36.4667C17.5443 24.9639 27.3905 15.5181 39.1691 9.11262C50.9477 2.70716 64.2281 -0.423693 77.6276 0.0460431L76.8393 22.5322C67.4597 22.2034 58.1634 24.395 49.9184 28.8788C41.6733 33.3627 34.781 39.9748 29.959 48.0267L10.6557 36.4667Z" fill="#404040"/>
<path d="M64.6463 87.3182C62.8963 87.3182 61.3395 87.0341 59.9759 86.4659C58.6198 85.8902 57.5554 85.1061 56.7827 84.1136C56.0099 83.1212 55.6236 81.9962 55.6236 80.7386C55.6236 79.7689 55.8433 78.8788 56.2827 78.0682C56.7296 77.25 57.3357 76.572 58.1009 76.0341C58.866 75.4886 59.7221 75.1402 60.669 74.9886V74.8295C59.4266 74.5795 58.419 73.9773 57.6463 73.0227C56.8736 72.0606 56.4872 70.9432 56.4872 69.6705C56.4872 68.4659 56.8395 67.3939 57.544 66.4545C58.2486 65.5076 59.2145 64.7652 60.4418 64.2273C61.6766 63.6818 63.0781 63.4091 64.6463 63.4091C66.2145 63.4091 67.6122 63.6818 68.8395 64.2273C70.0743 64.7727 71.044 65.5189 71.7486 66.4659C72.4531 67.4053 72.8092 68.4735 72.8168 69.6705C72.8092 70.9508 72.4152 72.0682 71.6349 73.0227C70.8546 73.9773 69.8546 74.5795 68.6349 74.8295V74.9886C69.5668 75.1402 70.4115 75.4886 71.169 76.0341C71.9342 76.572 72.5402 77.25 72.9872 78.0682C73.4418 78.8788 73.6728 79.7689 73.6804 80.7386C73.6728 81.9962 73.2827 83.1212 72.5099 84.1136C71.7372 85.1061 70.669 85.8902 69.3054 86.4659C67.9493 87.0341 66.3963 87.3182 64.6463 87.3182ZM64.6463 83.7045C65.4266 83.7045 66.1084 83.5644 66.6918 83.2841C67.2751 82.9962 67.7296 82.6023 68.0554 82.1023C68.3887 81.5947 68.5554 81.0114 68.5554 80.3523C68.5554 79.678 68.3849 79.0833 68.044 78.5682C67.7031 78.0455 67.241 77.6364 66.6577 77.3409C66.0743 77.0379 65.4039 76.8864 64.6463 76.8864C63.8963 76.8864 63.2259 77.0379 62.6349 77.3409C62.044 77.6364 61.5781 78.0455 61.2372 78.5682C60.9039 79.0833 60.7372 79.678 60.7372 80.3523C60.7372 81.0114 60.9001 81.5947 61.2259 82.1023C61.5516 82.6023 62.0099 82.9962 62.6009 83.2841C63.1918 83.5644 63.8736 83.7045 64.6463 83.7045ZM64.6463 73.3068C65.2978 73.3068 65.8774 73.1742 66.3849 72.9091C66.8925 72.6439 67.2902 72.2765 67.5781 71.8068C67.866 71.3371 68.0099 70.7955 68.0099 70.1818C68.0099 69.5758 67.866 69.0455 67.5781 68.5909C67.2902 68.1288 66.8963 67.7689 66.3963 67.5114C65.8963 67.2462 65.313 67.1136 64.6463 67.1136C63.9872 67.1136 63.4039 67.2462 62.8963 67.5114C62.3887 67.7689 61.991 68.1288 61.7031 68.5909C61.4228 69.0455 61.2827 69.5758 61.2827 70.1818C61.2827 70.7955 61.4266 71.3371 61.7145 71.8068C62.0024 72.2765 62.4001 72.6439 62.9077 72.9091C63.4152 73.1742 63.9948 73.3068 64.6463 73.3068ZM76.7685 82.9091V79.0341L86.4844 63.7273H89.8253V69.0909H87.848L81.723 78.7841V78.9659H95.5298V82.9091H76.7685ZM87.9389 87V81.7273L88.0298 80.0114V63.7273H92.6435V87H87.9389Z" fill="white" fill-opacity="0.87"/>
</svg>
